<svg width="225" height="314" viewBox="0 0 225 314" fill="none" xmlns="http://www.w3.org/2000/svg">
<path d="M54.8103 7.75281L20.4972 0.0899658C20.4972 0.0899658 12.5631 50.4747 9.57939 75.7009C4.76471 116.524 -1.06718 172.944 1.23845 216.141C3.74751 263.677 16.7675 309.451 21.0397 309.451C25.3119 309.451 18.7341 280.359 21.7178 216.208C23.6844 173.487 30.7369 122.152 39.2135 75.7009C43.4178 52.7803 55.6241 7.75281 55.6241 7.75281H54.8103Z" fill="url(#paint0_linear_20_30)"/>
<path d="M199.658 4.15881H210.169C224.274 56.7813 226.918 132.731 223.867 189.965C220.544 252.963 203.32 313.587 197.623 313.587C191.927 313.587 200.675 275.002 196.742 190.101C194.097 133.477 182.094 80.2444 180.806 4.22659H199.658V4.15881Z" fill="url(#paint1_linear_20_30)"/>
<defs>
<linearGradient id="paint0_linear_20_30" x1="34.7887" y1="19.264" x2="4.76469" y2="308.942" gradientUnits="userSpaceOnUse">
<stop stop-color="#502D95"/>
<stop offset="0.1" stop-color="#6D37AC"/>
<stop offset="0.57" stop-color="#6786D1"/>
</linearGradient>
<linearGradient id="paint1_linear_20_30" x1="208.88" y1="37.1835" x2="178.856" y2="326.98" gradientUnits="userSpaceOnUse">
<stop stop-color="#502D95"/>
<stop offset="0.1" stop-color="#6D37AC"/>
<stop offset="0.57" stop-color="#6786D1"/>
</linearGradient>
</defs>
</svg>
