<svg width="474" height="431" viewBox="0 0 474 431" fill="none" xmlns="http://www.w3.org/2000/svg">
<path d="M473.457 243.854C473.457 331.332 458.606 336.621 434.261 373.715C416.765 400.297 452.163 420.912 437.991 428.236C421.038 436.984 426.395 421.116 392.76 412.097C378.18 408.231 346.376 412.503 333.492 415.013C320.743 417.454 281.886 395.822 271.511 393.041C256.118 388.905 218.346 408.977 195.358 408.977C172.369 408.977 148.296 388.905 117.644 397.11C81.2969 406.875 37.4222 430.609 30.7766 422.811C18.0278 407.96 58.5797 396.635 43.5253 370.188C34.0316 353.439 1.00691 309.293 0.0575368 264.672C-2.99403 121.181 115.813 0 243.098 0C370.382 0 473.321 110.399 473.321 233.885" fill="url(#paint0_linear_21_26)"/>
<path fill-rule="evenodd" clip-rule="evenodd" d="M235.163 45.5022C165.656 45.5022 68.4804 117.451 68.4804 186.959C68.4804 194.69 62.2416 200.928 54.511 200.928C46.7804 200.928 40.5416 194.69 40.5416 186.959C40.5416 102.058 150.194 17.5635 235.163 17.5635C242.894 17.5635 249.133 23.8022 249.133 31.5328C249.133 39.2635 242.894 45.5022 235.163 45.5022Z" fill="url(#paint1_linear_21_26)"/>
<path d="M338.035 308.479C330.643 320.55 320.607 330.247 308.74 336.893C303.654 339.673 298.297 341.911 292.736 343.538C276.122 350.998 257.474 354.998 238.554 355.405C173.929 356.558 120.289 315.26 118.187 262.841C117.17 237.14 132.495 210.49 144.363 189.943C154.399 172.583 171.691 142.678 194.476 130.743C240.927 106.33 303.518 132.167 334.848 188.722C343.935 205.133 349.699 223.103 351.665 241.006C353.089 246.838 353.903 252.805 353.971 258.773C354.174 274.302 349.699 289.627 341.019 303.393C340.137 305.156 339.188 306.852 338.171 308.479H338.035Z" fill="url(#paint2_linear_21_26)"/>
<path d="M235.977 179.974C276.258 179.974 308.876 212.592 308.876 252.873C308.876 293.153 276.258 325.771 235.977 325.771C195.697 325.771 163.079 293.153 163.079 252.873C163.079 245.413 164.164 238.225 166.266 231.376C171.962 244.057 184.711 252.873 199.494 252.873C219.634 252.873 235.909 236.53 235.909 216.457C235.909 201.674 227.094 188.926 214.413 183.229C221.194 181.127 228.382 180.042 235.909 180.042H235.977V179.974Z" fill="url(#paint3_linear_21_26)"/>
<defs>
<linearGradient id="paint0_linear_21_26" x1="134.94" y1="153.878" x2="473.117" y2="529.563" gradientUnits="userSpaceOnUse">
<stop stop-color="#C395FC"/>
<stop offset="1" stop-color="#4F65F5"/>
</linearGradient>
<linearGradient id="paint1_linear_21_26" x1="144.847" y1="52.6103" x2="144.847" y2="193.161" gradientUnits="userSpaceOnUse">
<stop stop-color="white" stop-opacity="0.4"/>
<stop offset="1" stop-color="white" stop-opacity="0"/>
</linearGradient>
<linearGradient id="paint2_linear_21_26" x1="312.357" y1="189.098" x2="138.813" y2="316.645" gradientUnits="userSpaceOnUse">
<stop stop-color="#F9F9F9"/>
<stop offset="1" stop-color="#F9F9F9" stop-opacity="0"/>
</linearGradient>
<linearGradient id="paint3_linear_21_26" x1="184.632" y1="200.46" x2="302.259" y2="320.511" gradientUnits="userSpaceOnUse">
<stop stop-color="#0043A2"/>
<stop offset="1" stop-color="#00133A"/>
</linearGradient>
</defs>
</svg>
